<?xml version="1.0" standalone="no"?>
<!DOCTYPE svg PUBLIC "-//W3C//DTD SVG 20010904//EN"
 "http://www.w3.org/TR/2001/REC-SVG-20010904/DTD/svg10.dtd">
<svg version="1.0" xmlns="http://www.w3.org/2000/svg"
 width="500.000000pt" height="500.000000pt" viewBox="0 0 500.000000 500.000000"
 preserveAspectRatio="xMidYMid meet">

<g transform="translate(0.000000,500.000000) scale(0.100000,-0.100000)"
fill="#000000" stroke="none">
<path d="M2830 3801 c-36 -16 -145 -73 -242 -127 l-176 -99 -146 5 -146 5 -23
29 c-23 28 -24 29 -50 11 -15 -9 -27 -21 -27 -26 0 -5 -16 -9 -36 -9 -26 0
-47 9 -78 35 -41 34 -65 42 -79 29 -5 -6 26 -53 64 -98 12 -14 127 -34 137
-24 11 11 142 -1 142 -14 0 -5 -8 -7 -17 -4 -61 17 -146 5 -108 -16 16 -9 45
-65 45 -87 0 -6 -48 -12 -117 -13 -112 -3 -118 -4 -121 -25 -3 -19 2 -22 65
-28 37 -3 91 -11 118 -18 28 -6 91 -11 140 -11 97 -1 175 20 285 74 94 46 159
66 178 54 12 -8 24 -8 40 -1 16 7 26 7 34 -1 8 -8 17 -8 31 -1 10 6 30 9 43 6
14 -2 27 0 30 4 3 5 23 9 45 9 33 0 70 11 88 26 2 2 -7 19 -19 39 -15 24 -27
34 -38 30 -9 -3 -21 3 -29 15 -8 11 -22 20 -31 20 -9 0 17 22 58 49 146 94
176 160 84 181 -58 14 -73 12 -144 -19z m75 -6 l-30 -15 28 5 c15 3 38 8 52
11 91 23 -78 -97 -285 -201 -79 -40 -80 -40 -80 -20 0 8 -9 24 -19 34 -24 24
-28 21 117 100 139 77 190 100 222 100 24 0 24 0 -5 -14z m-1005 -187 l40 -31
167 -8 c93 -4 203 -8 246 -8 63 -1 77 -4 77 -17 0 -8 -4 -13 -9 -10 -9 6 -311
25 -434 27 -77 2 -78 2 -108 40 -37 47 -31 49 21 7z m658 -10 c7 -7 12 -19 11
-27 0 -10 -4 -7 -9 7 -5 12 -17 22 -25 22 -26 0 -15 -44 13 -48 23 -4 31 -22
10 -22 -28 0 -60 43 -51 68 6 15 35 16 51 0z m-35 -68 c8 0 6 -4 -3 -10 -20
-13 -33 -13 -24 1 4 7 -1 7 -16 -1 -28 -15 -38 -5 -11 12 25 15 28 33 5 24
-14 -6 -15 -4 -4 10 12 14 15 13 27 -10 8 -14 19 -26 26 -26z m292 28 c-7 -18
10 -42 23 -34 6 4 9 14 6 24 -5 14 -4 14 4 3 13 -18 5 -41 -14 -41 -16 0 -37
37 -29 50 9 14 15 12 10 -2z m-5 -63 c0 -2 -14 -3 -30 -3 -29 1 -30 2 -14 20
10 10 14 18 10 18 -4 0 -4 5 -1 11 4 6 13 -1 21 -16 8 -15 14 -29 14 -30z
m-566 32 c-2 -7 -19 -21 -37 -31 l-32 -18 34 31 c37 34 43 37 35 18z m483 -3
c-3 -3 -12 -4 -19 -1 -8 3 -5 6 6 6 11 1 17 -2 13 -5z m188 -4 c3 -5 1 -10 -4
-10 -6 0 -11 5 -11 10 0 6 2 10 4 10 3 0 8 -4 11 -10z m-632 -17 c-7 -2 -19
-2 -25 0 -7 3 -2 5 12 5 14 0 19 -2 13 -5z m57 -9 c-8 -8 -23 -20 -34 -26 -19
-10 -18 -8 3 16 26 27 53 37 31 10z m90 -4 c12 -8 11 -10 -5 -9 -11 1 -31 5
-45 9 -24 8 -24 8 5 9 17 0 37 -4 45 -9z m470 0 c18 -12 2 -12 -25 0 -13 6
-15 9 -5 9 8 0 22 -4 30 -9z m-200 -4 c0 -2 -8 -10 -17 -17 -16 -13 -17 -12
-4 4 13 16 21 21 21 13z m-400 -30 c14 -2 36 -4 49 -5 19 -1 21 -4 12 -15 -17
-21 -189 -94 -236 -100 l-40 -6 31 12 c17 7 46 25 65 40 31 25 32 27 9 22 -22
-5 -20 -3 9 17 l35 23 -33 7 c-62 13 -53 26 11 17 35 -5 74 -11 88 -12z m-158
-88 c-6 -6 -60 -6 -143 -1 l-134 8 135 5 c141 5 158 4 142 -12z"/>
<path d="M2787 3743 c-4 -3 -7 -11 -7 -17 0 -6 5 -5 12 2 6 6 9 14 7 17 -3 3
-9 2 -12 -2z"/>
<path d="M2747 3723 c-4 -3 -7 -11 -7 -17 0 -6 5 -5 12 2 6 6 9 14 7 17 -3 3
-9 2 -12 -2z"/>
<path d="M2700 3689 c0 -5 5 -7 10 -4 6 3 10 8 10 11 0 2 -4 4 -10 4 -5 0 -10
-5 -10 -11z"/>
<path d="M2665 3670 c-3 -5 -1 -10 4 -10 6 0 11 5 11 10 0 6 -2 10 -4 10 -3 0
-8 -4 -11 -10z"/>
<path d="M2625 3650 c-3 -5 -1 -10 4 -10 6 0 11 5 11 10 0 6 -2 10 -4 10 -3 0
-8 -4 -11 -10z"/>
<path d="M2590 3629 c0 -5 5 -7 10 -4 6 3 10 8 10 11 0 2 -4 4 -10 4 -5 0 -10
-5 -10 -11z"/>
<path d="M2328 2508 c-26 -29 -85 -93 -131 -143 l-84 -90 -33 29 -34 28 -65
-69 c-74 -77 -165 -174 -327 -348 -61 -66 -132 -142 -157 -170 -26 -27 -47
-53 -47 -58 0 -4 39 18 88 50 79 51 168 108 359 230 36 23 70 40 76 36 5 -3 6
-28 2 -59 -4 -34 -3 -54 3 -54 6 0 92 91 193 203 100 111 188 209 196 217 11
12 20 7 68 -40 30 -30 55 -58 55 -62 0 -4 -58 -78 -129 -165 -71 -87 -128
-160 -126 -162 3 -2 44 11 92 29 49 17 138 50 198 72 127 46 181 66 212 81 13
6 25 8 29 5 3 -3 -45 -81 -106 -172 -61 -92 -114 -174 -117 -183 -3 -8 76 53
177 136 100 83 184 150 187 148 2 -2 -3 -33 -12 -68 -21 -93 -21 -94 33 -112
91 -31 447 -155 474 -166 21 -8 26 -7 21 2 -4 7 -147 151 -320 322 l-313 309
-38 -37 c-21 -20 -41 -37 -44 -37 -4 0 -77 79 -164 175 -86 96 -159 175 -163
175 -3 0 -27 -24 -53 -52z"/>
<path d="M2755 1218 c-16 -49 -32 -88 -36 -88 -3 0 -12 28 -19 63 -18 88 -24
97 -67 97 l-36 0 6 -47 c3 -27 19 -104 35 -173 l28 -125 47 -3 c26 -2 47 -1
47 2 0 2 20 70 45 149 25 80 45 154 45 165 0 22 -40 38 -51 20 -4 -7 -9 -4
-11 8 -2 11 -16 -17 -33 -68z"/>
<path d="M618 1278 c-25 -21 -118 -273 -118 -323 0 -13 9 -16 47 -13 41 3 48
6 53 28 5 19 14 26 42 31 35 5 37 4 40 -25 3 -29 6 -31 51 -34 56 -4 55 -9 28
139 -31 161 -32 166 -53 188 -21 23 -66 28 -90 9z m38 -185 c-14 -14 -23 4
-13 27 l10 25 5 -23 c2 -13 1 -26 -2 -29z m84 -93 c0 -5 -4 -10 -10 -10 -5 0
-10 5 -10 10 0 6 5 10 10 10 6 0 10 -4 10 -10z"/>
<path d="M860 1281 c-34 -6 -35 -7 -41 -66 -4 -33 -9 -107 -10 -165 l-4 -105
40 0 40 0 3 53 c4 66 16 64 57 -6 17 -28 32 -51 35 -52 3 0 20 9 38 20 l32 20
-25 50 -25 49 25 37 c34 50 34 111 0 148 -21 22 -32 26 -77 25 -29 -1 -69 -4
-88 -8z m100 -96 c0 -25 -25 -45 -55 -45 -12 0 -14 6 -9 28 10 39 12 42 40 42
19 0 24 -5 24 -25z"/>
<path d="M1203 1282 c-22 -14 -123 -284 -123 -328 0 -10 12 -14 46 -14 41 0
46 3 55 29 8 23 17 30 45 33 27 3 34 0 34 -13 0 -39 11 -49 54 -49 24 0 45 2
48 5 8 9 -42 269 -60 305 -14 29 -23 35 -52 38 -19 1 -40 -1 -47 -6z m34 -191
c-15 -6 -18 6 -10 35 l7 29 6 -30 c3 -16 2 -32 -3 -34z m83 -91 c0 -5 -4 -10
-10 -10 -5 0 -10 5 -10 10 0 6 5 10 10 10 6 0 10 -4 10 -10z"/>
<path d="M1386 1268 c-3 -13 -6 -36 -6 -52 0 -28 1 -28 40 -22 l40 6 0 -130 0
-130 45 0 45 0 0 83 c0 45 3 106 6 135 7 51 7 52 40 52 39 0 48 11 39 50 l-7
30 -118 0 c-114 0 -118 -1 -124 -22z"/>
<path d="M1773 1282 c-22 -14 -123 -284 -123 -328 0 -10 12 -14 46 -14 41 0
46 3 55 29 8 23 17 30 45 33 27 3 34 0 34 -13 0 -39 11 -49 54 -49 24 0 45 2
48 5 8 9 -42 269 -60 305 -14 29 -23 35 -52 38 -19 1 -40 -1 -47 -6z m34 -191
c-15 -6 -18 6 -10 35 l7 29 6 -30 c3 -16 2 -32 -3 -34z m83 -91 c0 -5 -4 -10
-10 -10 -5 0 -10 5 -10 10 0 6 5 10 10 10 6 0 10 -4 10 -10z"/>
<path d="M1977 1283 c-3 -5 -8 -57 -11 -118 -4 -60 -9 -136 -12 -168 l-6 -58
48 3 48 3 4 70 c2 39 5 71 7 73 1 1 16 -30 32 -70 29 -72 30 -73 70 -76 l40
-3 6 122 c4 67 7 146 7 176 l0 53 -40 0 -40 0 0 -47 c0 -60 -15 -88 -24 -46
-4 16 -15 43 -26 61 -17 27 -25 32 -59 32 -22 0 -42 -3 -44 -7z"/>
<path d="M2313 1270 c-86 -52 -113 -264 -40 -315 35 -25 110 -19 146 11 28 23
51 75 51 115 0 32 -26 52 -65 51 -46 -2 -52 -6 -60 -54 -6 -32 -4 -38 9 -38
10 0 14 -4 11 -10 -3 -5 -15 -10 -26 -10 -17 0 -19 7 -19 60 0 33 7 76 14 95
19 44 46 47 46 4 0 -29 1 -30 43 -27 38 3 42 6 45 32 10 87 -76 135 -155 86z"/>
<path d="M2501 1268 c1 -17 2 -19 6 -5 2 9 9 17 15 17 6 0 3 -12 -7 -26 -9
-14 -14 -28 -11 -31 3 -4 2 -11 -3 -17 -9 -10 -14 -114 -12 -218 l1 -48 45 0
45 0 0 68 c0 38 3 117 7 175 l6 107 -46 0 c-42 0 -47 -2 -46 -22z m6 -110 c-3
-8 -6 -5 -6 6 -1 11 2 17 5 13 3 -3 4 -12 1 -19z"/>
<path d="M2891 1268 c1 -17 2 -19 6 -5 2 9 9 17 15 17 6 0 3 -11 -6 -25 -9
-14 -14 -30 -11 -35 3 -5 1 -11 -5 -15 -6 -4 -10 -59 -10 -136 l0 -129 45 0
45 0 0 68 c0 38 3 117 7 175 l6 107 -46 0 c-42 0 -47 -2 -46 -22z m6 -110 c-3
-8 -6 -5 -6 6 -1 11 2 17 5 13 3 -3 4 -12 1 -19z"/>
<path d="M3108 1278 c-18 -15 -59 -115 -99 -241 -30 -98 -29 -101 37 -95 31 2
39 8 44 28 5 19 14 26 42 31 35 5 37 4 40 -25 3 -29 6 -31 51 -34 56 -4 55 -9
28 139 -31 161 -32 166 -53 188 -21 23 -66 28 -90 9z m38 -185 c-14 -14 -23 4
-13 27 l10 25 5 -23 c2 -13 1 -26 -2 -29z m84 -93 c0 -5 -4 -10 -10 -10 -5 0
-10 5 -10 10 0 6 5 10 10 10 6 0 10 -4 10 -10z"/>
<path d="M3373 1270 c-86 -52 -113 -264 -40 -315 35 -25 110 -19 146 11 28 23
51 75 51 115 0 32 -26 52 -65 51 -46 -2 -52 -6 -60 -54 -6 -32 -4 -38 9 -38
10 0 14 -4 11 -10 -3 -5 -15 -10 -26 -10 -17 0 -19 7 -19 60 0 33 7 76 14 95
19 44 46 47 46 4 0 -29 1 -30 43 -27 38 3 42 6 45 32 10 87 -76 135 -155 86z"/>
<path d="M3588 1283 c-26 -4 -26 -6 -33 -101 -8 -124 -8 -137 -7 -195 l2 -48
78 2 c42 1 94 4 115 7 38 5 38 5 35 45 l-3 41 -67 -3 c-62 -2 -68 -1 -68 17 0
21 25 32 77 32 38 0 47 11 38 50 -6 29 -9 30 -62 30 -46 0 -54 3 -51 18 2 11
14 18 33 20 114 9 115 10 115 53 l0 39 -87 -1 c-49 -1 -100 -4 -115 -6z"/>
<path d="M3827 1238 c-4 -29 -9 -108 -13 -175 l-7 -123 46 0 46 0 3 86 3 86
34 -86 33 -86 44 0 44 0 2 135 c1 74 2 152 3 173 0 35 -2 37 -34 40 -42 4 -50
-8 -52 -73 l-1 -50 -20 45 c-30 65 -46 80 -88 80 l-37 0 -6 -52z"/>
<path d="M4163 1275 c-56 -24 -81 -105 -47 -153 9 -13 33 -34 55 -48 69 -43
42 -87 -31 -49 -29 15 -30 14 -45 -15 -15 -30 -15 -30 17 -50 39 -24 107 -26
148 -5 32 16 55 72 46 110 -3 12 -28 42 -56 65 -47 39 -62 71 -41 84 5 3 12
-5 15 -19 4 -15 16 -27 31 -31 40 -10 55 1 55 41 0 72 -69 104 -147 70z"/>
</g>
</svg>
